<svg xmlns="http://www.w3.org/2000/svg" xmlns:v="https://svgstorm.com"
viewBox = "0 0 1000 1000"
width="1000"
height="1000">
<g fill="None" fill-opacity="0.0" stroke="#000000" stroke-opacity="0.00" stroke-width="0.3"><path d="
M 0.00 1000.00 
L 1000.00 1000.00
L 1000.00 0.00
L 0.00 0.00
L 0.00 1000.00
M 783.00 249.00 
C 823.43 292.70 852.15 344.43 870.26 399.74 C 962.20 425.95 1017.47 536.84 981.07 626.07 C 955.45 697.37 880.24 752.73 803.00 744.00 C 788.04 742.07 777.44 729.80 765.25 721.75 C 754.96 714.95 736.29 702.50 746.77 688.77 C 831.62 572.76 819.46 396.26 717.00 294.00
C 694.50 307.10 673.50 323.41 651.30 337.30 C 640.84 343.45 629.93 357.43 617.32 352.68 C 603.17 345.64 600.36 330.05 608.78 317.78 C 617.95 290.74 626.92 263.71 637.00 237.00
C 508.39 173.21 335.52 209.50 252.25 331.25 C 178.77 432.21 177.97 583.59 250.77 685.23 C 269.86 701.87 246.44 719.23 231.92 727.92 C 216.34 745.16 194.74 747.30 172.00 745.00 C 93.09 741.77 25.57 670.29 13.02 594.98 C 5.39 530.79 28.68 469.41 79.75 429.75 C 94.40 417.30 112.33 410.29 129.25 402.25 C 178.74 229.11 361.73 101.10 543.01 125.99 C 585.09 130.18 625.04 143.18 663.00 161.00
C 669.50 143.10 675.65 125.15 682.32 107.32 C 694.80 87.01 715.58 102.73 727.25 114.75 C 755.24 135.54 782.60 157.37 810.25 178.75 C 822.93 186.93 845.52 204.43 826.25 218.25 C 813.09 230.48 797.05 238.12 783.00 249.00
M 526.00 451.00 
C 532.00 454.53 537.62 459.41 542.00 465.00
C 587.68 422.32 635.06 382.63 680.25 339.25 C 692.54 331.87 703.41 309.23 719.23 319.77 C 737.71 331.11 724.93 349.86 719.22 364.22 C 712.95 379.93 707.02 395.75 700.23 411.23 C 695.40 428.37 711.40 444.29 711.99 462.01 C 742.57 583.25 645.85 712.81 525.00 728.00
C 531.56 730.79 541.59 731.76 546.00 740.00
C 552.41 736.14 559.13 728.74 567.08 729.94 C 576.20 732.52 585.51 726.93 596.00 729.00 C 603.78 731.35 610.32 738.53 613.00 746.00
C 624.91 726.11 649.32 732.22 668.03 733.98 C 684.69 731.02 708.97 722.53 722.00 741.00
C 736.45 726.05 764.47 723.34 778.75 740.25 C 788.77 747.85 784.98 763.09 783.68 773.68 C 775.51 782.46 788.84 794.57 785.00 806.00 C 782.00 826.08 759.19 844.40 738.33 840.67 C 727.92 835.70 718.25 835.04 707.78 834.22 C 697.44 827.62 690.83 846.95 679.00 840.00
C 692.14 864.84 706.71 898.88 684.75 923.75 C 673.02 949.38 632.39 964.78 612.00 941.00
C 599.61 953.82 574.92 957.70 566.00 939.00
C 560.65 941.94 556.74 947.03 552.25 951.25 C 545.62 956.28 539.34 952.50 532.00 954.00 C 518.74 964.24 505.25 950.91 498.00 940.00
C 487.31 947.51 472.94 954.84 460.31 950.69 C 450.90 942.76 441.13 934.08 433.00 925.00
C 428.06 935.78 422.06 947.94 410.77 953.77 C 398.16 959.75 385.67 947.44 380.00 937.00
C 365.74 955.38 337.41 958.89 319.75 943.25 C 300.70 929.56 298.27 901.11 319.00 888.00
C 309.20 871.38 311.66 851.63 324.00 837.00
C 317.59 832.91 310.23 837.93 303.31 832.69 C 296.44 832.49 291.67 843.27 283.00 841.00 C 275.72 839.76 269.30 835.26 265.00 829.00
C 252.65 845.37 228.02 846.38 217.70 827.30 C 211.83 817.22 216.49 803.54 215.00 792.00 C 216.17 771.32 208.70 741.85 232.68 732.68 C 243.12 725.58 253.65 735.93 265.00 734.00 C 274.40 733.16 284.50 731.20 294.02 729.02 C 305.47 725.20 313.82 739.03 323.68 733.68 C 333.48 728.47 345.10 735.55 356.00 732.00 C 366.27 738.06 375.49 728.30 386.07 732.93 C 397.39 731.95 408.60 731.13 418.00 738.00
C 435.85 719.60 461.40 737.16 482.00 730.00
C 361.11 724.39 256.56 604.46 273.78 482.78 C 286.65 362.50 410.61 265.33 531.00 288.00 C 545.97 277.73 560.14 266.25 575.08 256.08 C 588.31 245.74 607.59 225.60 621.25 246.75 C 631.00 264.80 609.00 281.79 604.08 299.08 C 577.45 349.40 551.86 400.00 526.00 451.00 Z"/>
</g>
<g fill="None" fill-opacity="0.0" stroke="#000000" stroke-opacity="1.00" stroke-width="0.3"><path d="
M 783.00 249.00 
C 797.05 238.12 813.09 230.48 826.25 218.25 C 845.52 204.43 822.93 186.93 810.25 178.75 C 782.60 157.37 755.24 135.54 727.25 114.75 C 715.58 102.73 694.80 87.01 682.32 107.32 C 675.65 125.15 669.50 143.10 663.00 161.00
C 625.04 143.18 585.09 130.18 543.01 125.99 C 361.73 101.10 178.74 229.11 129.25 402.25 C 112.33 410.29 94.40 417.30 79.75 429.75 C 28.68 469.41 5.39 530.79 13.02 594.98 C 25.57 670.29 93.09 741.77 172.00 745.00 C 194.74 747.30 216.34 745.16 231.92 727.92 C 246.44 719.23 269.86 701.87 250.77 685.23 C 177.97 583.59 178.77 432.21 252.25 331.25 C 335.52 209.50 508.39 173.21 637.00 237.00
C 626.92 263.71 617.95 290.74 608.78 317.78 C 600.36 330.05 603.17 345.64 617.32 352.68 C 629.93 357.43 640.84 343.45 651.30 337.30 C 673.50 323.41 694.50 307.10 717.00 294.00
C 819.46 396.26 831.62 572.76 746.77 688.77 C 736.29 702.50 754.96 714.95 765.25 721.75 C 777.44 729.80 788.04 742.07 803.00 744.00 C 880.24 752.73 955.45 697.37 981.07 626.07 C 1017.47 536.84 962.20 425.95 870.26 399.74 C 852.15 344.43 823.43 292.70 783.00 249.00
M 772.00 695.00 
C 768.65 693.54 765.94 691.11 763.00 689.00
C 856.60 562.14 838.97 365.98 717.00 262.00
C 686.08 283.28 654.67 304.96 623.00 325.00
C 631.67 299.54 640.36 273.98 649.77 248.77 C 650.23 237.34 667.89 219.36 650.31 214.69 C 506.34 134.03 306.70 188.62 223.23 333.23 C 156.05 440.53 162.94 590.81 239.00 692.00
C 235.10 692.66 232.91 697.35 229.00 698.00
C 215.13 711.27 198.92 722.52 178.00 718.00 C 80.39 716.62 7.41 607.87 36.93 515.93 C 49.64 465.32 93.52 420.59 145.00 410.00
C 168.05 310.71 241.18 220.86 333.23 174.23 C 437.17 119.78 571.25 121.55 674.00 178.00
C 682.56 154.39 690.57 130.67 699.00 107.00
C 738.12 136.00 775.97 166.90 815.00 196.00
C 795.49 209.75 775.41 223.75 755.00 236.00
C 793.87 277.01 826.52 323.44 844.93 376.07 C 851.14 388.99 849.00 410.40 868.02 409.98 C 974.50 439.51 1007.15 589.45 930.75 665.75 C 899.42 700.25 855.67 718.97 809.00 716.00 C 793.97 716.11 783.53 702.73 772.00 695.00 Z"/>
</g>
<g fill="None" fill-opacity="0.0" stroke="#CA367F" stroke-opacity="1.00" stroke-width="0.3"><path d="
M 229.00 698.00 
C 219.13 684.83 209.30 671.49 202.00 657.00
C 149.63 680.60 90.15 636.43 84.00 583.00 C 71.72 530.16 104.52 465.67 161.00 459.00
C 170.56 351.41 240.85 251.17 337.23 200.23 C 441.97 142.36 580.65 148.99 681.00 210.00
C 672.65 234.35 663.34 258.33 656.00 283.00
C 671.55 273.35 686.51 262.90 701.75 252.75 C 709.26 249.84 717.46 236.27 725.25 242.75 C 782.94 294.88 822.97 363.29 835.78 438.22 C 837.73 449.08 834.75 465.44 851.00 462.00 C 947.80 477.50 954.14 636.33 860.98 662.98 C 839.82 670.20 817.08 663.98 798.00 655.00
C 791.40 669.26 782.08 682.93 772.00 695.00
C 783.53 702.73 793.97 716.11 809.00 716.00 C 855.67 718.97 899.42 700.25 930.75 665.75 C 1007.15 589.45 974.50 439.51 868.02 409.98 C 849.00 410.40 851.14 388.99 844.93 376.07 C 826.52 323.44 793.87 277.01 755.00 236.00
C 775.41 223.75 795.49 209.75 815.00 196.00
C 775.97 166.90 738.12 136.00 699.00 107.00
C 690.57 130.67 682.56 154.39 674.00 178.00
C 571.25 121.55 437.17 119.78 333.23 174.23 C 241.18 220.86 168.05 310.71 145.00 410.00
C 93.52 420.59 49.64 465.32 36.93 515.93 C 7.41 607.87 80.39 716.62 178.00 718.00 C 198.92 722.52 215.13 711.27 229.00 698.00 Z"/>
</g>
<g fill="None" fill-opacity="0.0" stroke="#DECA3F" stroke-opacity="1.00" stroke-width="0.3"><path d="
M 229.00 698.00 
C 232.91 697.35 235.10 692.66 239.00 692.00
C 162.94 590.81 156.05 440.53 223.23 333.23 C 306.70 188.62 506.34 134.03 650.31 214.69 C 667.89 219.36 650.23 237.34 649.77 248.77 C 640.36 273.98 631.67 299.54 623.00 325.00
C 654.67 304.96 686.08 283.28 717.00 262.00
C 838.97 365.98 856.60 562.14 763.00 689.00
C 765.94 691.11 768.65 693.54 772.00 695.00
C 782.08 682.93 791.40 669.26 798.00 655.00
C 817.08 663.98 839.82 670.20 860.98 662.98 C 954.14 636.33 947.80 477.50 851.00 462.00 C 834.75 465.44 837.73 449.08 835.78 438.22 C 822.97 363.29 782.94 294.88 725.25 242.75 C 717.46 236.27 709.26 249.84 701.75 252.75 C 686.51 262.90 671.55 273.35 656.00 283.00
C 663.34 258.33 672.65 234.35 681.00 210.00
C 580.65 148.99 441.97 142.36 337.23 200.23 C 240.85 251.17 170.56 351.41 161.00 459.00
C 104.52 465.67 71.72 530.16 84.00 583.00 C 90.15 636.43 149.63 680.60 202.00 657.00
C 209.30 671.49 219.13 684.83 229.00 698.00 Z"/>
</g>
<g fill="None" fill-opacity="0.0" stroke="#000000" stroke-opacity="1.00" stroke-width="0.3"><path d="
M 526.00 451.00 
C 551.86 400.00 577.45 349.40 604.08 299.08 C 609.00 281.79 631.00 264.80 621.25 246.75 C 607.59 225.60 588.31 245.74 575.08 256.08 C 560.14 266.25 545.97 277.73 531.00 288.00 C 410.61 265.33 286.65 362.50 273.78 482.78 C 256.56 604.46 361.11 724.39 482.00 730.00
C 461.40 737.16 435.85 719.60 418.00 738.00
C 408.60 731.13 397.39 731.95 386.07 732.93 C 375.49 728.30 366.27 738.06 356.00 732.00 C 345.10 735.55 333.48 728.47 323.68 733.68 C 313.82 739.03 305.47 725.20 294.02 729.02 C 284.50 731.20 274.40 733.16 265.00 734.00 C 253.65 735.93 243.12 725.58 232.68 732.68 C 208.70 741.85 216.17 771.32 215.00 792.00 C 216.49 803.54 211.83 817.22 217.70 827.30 C 228.02 846.38 252.65 845.37 265.00 829.00
C 269.30 835.26 275.72 839.76 283.00 841.00 C 291.67 843.27 296.44 832.49 303.31 832.69 C 310.23 837.93 317.59 832.91 324.00 837.00
C 311.66 851.63 309.20 871.38 319.00 888.00
C 298.27 901.11 300.70 929.56 319.75 943.25 C 337.41 958.89 365.74 955.38 380.00 937.00
C 385.67 947.44 398.16 959.75 410.77 953.77 C 422.06 947.94 428.06 935.78 433.00 925.00
C 441.13 934.08 450.90 942.76 460.31 950.69 C 472.94 954.84 487.31 947.51 498.00 940.00
C 505.25 950.91 518.74 964.24 532.00 954.00 C 539.34 952.50 545.62 956.28 552.25 951.25 C 556.74 947.03 560.65 941.94 566.00 939.00
C 574.92 957.70 599.61 953.82 612.00 941.00
C 632.39 964.78 673.02 949.38 684.75 923.75 C 706.71 898.88 692.14 864.84 679.00 840.00
C 690.83 846.95 697.44 827.62 707.78 834.22 C 718.25 835.04 727.92 835.70 738.33 840.67 C 759.19 844.40 782.00 826.08 785.00 806.00 C 788.84 794.57 775.51 782.46 783.68 773.68 C 784.98 763.09 788.77 747.85 778.75 740.25 C 764.47 723.34 736.45 726.05 722.00 741.00
C 708.97 722.53 684.69 731.02 668.03 733.98 C 649.32 732.22 624.91 726.11 613.00 746.00
C 610.32 738.53 603.78 731.35 596.00 729.00 C 585.51 726.93 576.20 732.52 567.08 729.94 C 559.13 728.74 552.41 736.14 546.00 740.00
C 541.59 731.76 531.56 730.79 525.00 728.00
C 645.85 712.81 742.57 583.25 711.99 462.01 C 711.40 444.29 695.40 428.37 700.23 411.23 C 707.02 395.75 712.95 379.93 719.22 364.22 C 724.93 349.86 737.71 331.11 719.23 319.77 C 703.41 309.23 692.54 331.87 680.25 339.25 C 635.06 382.63 587.68 422.32 542.00 465.00
C 537.62 459.41 532.00 454.53 526.00 451.00
M 547.00 360.00 
C 534.60 384.30 521.53 408.38 510.00 433.00
C 468.57 422.91 424.03 458.12 427.00 501.00 C 426.02 543.23 471.47 577.20 512.02 565.02 C 552.80 555.46 574.86 504.64 555.00 468.00
C 576.09 450.22 596.01 430.84 617.00 413.00
C 647.83 384.86 678.82 355.97 710.00 328.00
C 704.31 344.80 696.75 360.97 690.68 377.68 C 684.92 394.28 671.66 411.61 684.78 428.22 C 727.03 532.71 662.90 662.53 554.78 692.78 C 448.70 729.40 323.68 658.02 298.22 549.78 C 267.11 441.09 344.98 319.50 455.07 300.07 C 476.00 296.81 497.74 294.47 519.00 298.00 C 537.63 305.02 549.72 285.83 564.25 277.25 C 578.05 267.94 590.99 256.68 605.00 248.00
C 586.08 285.30 565.76 322.32 547.00 360.00
M 501.00 452.00 
C 533.92 456.11 552.65 499.75 531.08 526.08 C 511.72 553.57 465.19 548.45 452.23 517.77 C 435.96 486.29 466.03 446.35 501.00 452.00
M 599.00 806.00 
C 606.90 807.17 614.51 803.35 622.00 806.00
C 617.99 813.16 607.11 814.45 599.00 816.00 C 590.26 817.27 578.43 814.26 580.01 803.99 C 579.35 795.45 577.25 784.59 582.00 778.00
C 579.02 781.67 578.09 776.94 582.00 777.00
C 581.11 775.18 578.60 772.13 583.00 772.00
C 580.95 771.02 578.95 764.84 583.00 766.00
C 580.03 758.55 581.76 750.05 581.00 743.00
C 598.17 733.96 595.90 756.90 598.93 766.07 C 598.76 780.00 600.60 792.14 599.00 806.00
M 302.00 785.00 
C 307.63 791.26 316.65 799.67 316.73 807.75 C 306.38 815.11 302.08 798.56 295.00 794.00
C 297.10 803.00 291.83 809.01 288.00 815.00
C 283.04 816.52 280.03 813.19 277.00 811.00
C 278.88 797.22 276.72 785.59 277.00 771.00 C 277.51 761.50 270.20 741.68 287.22 745.22 C 298.60 737.94 312.49 745.10 316.92 757.08 C 323.38 768.82 312.26 780.85 302.00 785.00
M 458.00 762.00 
C 449.04 764.03 450.48 750.68 443.00 754.00
C 441.02 766.92 456.13 775.53 456.76 787.25 C 464.04 800.83 451.50 813.71 439.92 815.92 C 424.27 818.57 414.51 804.38 420.00 790.00
C 422.85 790.09 425.80 790.51 426.00 788.00
C 430.18 787.76 427.51 791.57 428.00 794.00
C 432.50 789.96 435.48 803.78 442.00 805.00
C 442.68 802.51 446.00 803.01 447.00 801.00
C 441.62 793.51 440.09 785.00 433.25 776.75 C 424.32 769.78 426.46 760.27 425.00 752.00
C 427.19 750.91 429.85 747.07 430.00 744.00
C 443.85 740.40 467.55 741.91 458.00 762.00
M 510.00 742.00 
C 516.85 754.36 499.09 747.67 493.00 752.00
C 491.17 773.84 497.47 797.30 487.68 815.68 C 474.71 820.80 478.58 799.91 478.00 792.00 C 478.00 779.67 478.00 767.33 478.00 755.00
C 475.07 755.89 471.96 756.11 469.00 757.00
C 459.83 747.24 473.42 743.24 481.25 744.80 C 490.72 743.38 500.47 743.21 510.00 742.00
M 702.00 785.00 
C 707.63 791.26 716.65 799.67 716.74 807.75 C 706.38 815.11 702.08 798.56 695.00 794.00
C 697.10 803.00 691.83 809.01 688.00 815.00
C 683.04 816.52 680.03 813.19 677.00 811.00
C 678.87 797.22 676.72 785.59 677.00 771.00 C 677.51 761.50 670.20 741.68 687.22 745.22 C 698.60 737.94 712.49 745.11 716.92 757.08 C 723.38 768.82 712.26 780.85 702.00 785.00
M 736.00 788.00 
C 737.44 794.91 744.87 799.59 749.00 806.00
C 750.27 803.24 750.12 801.69 754.00 803.00
C 753.62 798.84 751.62 795.13 751.00 791.00
C 744.89 791.64 747.36 779.87 741.25 776.75 C 729.32 767.30 732.44 754.63 738.00 744.00
C 748.92 743.09 770.42 738.15 767.21 756.23 C 766.48 766.10 755.53 759.02 754.30 753.70 C 747.55 754.28 752.07 765.98 755.25 769.75 C 758.30 773.62 765.29 780.14 762.29 784.30 C 775.76 802.02 751.45 823.43 734.78 813.22 C 728.19 812.93 724.70 803.30 726.78 797.78 C 724.24 791.30 731.61 789.37 736.00 788.00
M 548.00 772.00 
C 554.88 764.01 556.34 752.51 563.25 744.25 C 578.82 741.39 567.86 761.26 564.08 767.08 C 558.88 776.47 558.21 786.55 552.08 796.08 C 548.27 805.08 544.56 822.48 531.00 815.00
C 534.06 807.20 533.93 794.74 542.00 789.00
C 538.21 782.42 534.76 774.69 531.41 767.25 C 529.46 762.97 522.06 755.76 518.25 749.75 C 516.96 740.31 534.11 741.79 536.77 749.23 C 541.12 756.62 546.00 763.69 548.00 772.00
M 249.00 755.00 
C 248.06 760.28 248.60 764.61 249.00 770.00
C 254.43 771.35 261.59 767.03 264.92 772.08 C 260.85 775.00 254.42 775.63 249.00 776.00
C 248.25 788.82 251.71 801.46 249.00 814.00
C 240.93 819.61 228.95 813.93 233.00 802.00 C 232.43 782.98 233.70 762.89 237.00 744.00
C 242.63 742.72 247.34 746.65 253.00 747.00 C 257.23 748.79 270.95 745.52 266.89 752.89 C 261.05 755.45 255.15 753.41 249.00 755.00
M 362.00 747.00 
C 362.46 754.44 351.93 753.49 346.00 754.00
C 350.29 762.52 347.52 771.51 348.00 781.00
C 354.54 776.35 367.29 784.03 355.97 787.97 C 344.56 786.17 349.32 798.44 348.00 805.00
C 353.53 805.66 358.75 802.52 364.00 805.00
C 358.69 819.10 339.19 818.44 328.00 813.00
C 326.83 800.84 327.80 789.33 325.41 777.25 C 327.10 768.61 327.94 756.55 326.00 746.00
C 337.95 747.02 349.40 745.85 362.00 747.00
M 408.00 747.00 
C 408.59 754.53 397.79 753.43 392.00 754.00
C 396.33 762.43 394.05 772.29 394.00 781.00
C 400.97 776.20 413.60 784.21 401.97 787.97 C 390.64 786.29 395.74 798.54 394.00 805.00
C 399.82 805.58 405.43 802.46 411.00 805.00
C 403.96 819.36 384.86 818.05 374.00 813.00
C 373.25 808.56 375.08 802.51 374.22 799.44 C 371.23 799.97 371.83 789.05 375.00 794.00
C 369.90 777.74 374.35 763.15 373.00 746.00
C 384.50 747.31 395.81 745.76 408.00 747.00
M 666.00 747.00 
C 666.59 754.53 655.79 753.43 650.00 754.00
C 654.33 762.43 652.05 772.29 652.00 781.00
C 657.71 777.63 670.83 781.36 661.75 787.75 C 651.53 785.54 652.10 794.54 652.07 801.07 C 651.80 810.53 663.69 800.48 669.00 805.00
C 662.11 819.28 643.74 817.92 632.00 813.00
C 632.53 808.63 631.29 803.94 631.60 800.25 C 629.67 798.18 629.74 789.75 633.00 794.00
C 627.90 777.74 632.35 763.15 631.00 746.00
C 642.50 747.31 653.81 745.76 666.00 747.00
M 515.00 782.00 
C 520.89 791.13 516.81 799.64 514.00 809.00
C 512.95 801.21 511.08 788.95 515.00 782.00
M 511.00 819.00 
C 511.19 823.33 514.23 826.81 515.00 831.00
C 510.92 831.80 507.73 833.89 504.00 831.00
C 505.21 826.45 508.46 822.63 511.00 819.00
M 568.00 830.00 
C 566.33 832.54 563.51 834.58 564.00 838.00
C 561.05 837.87 558.97 835.12 556.00 835.00
C 557.65 831.52 562.51 829.92 563.00 826.00
C 565.22 825.95 566.99 828.29 568.00 830.00
M 594.00 843.00 
C 588.54 843.99 576.41 840.53 584.25 834.25 C 591.85 831.92 601.09 835.34 594.00 843.00
M 662.00 840.00 
C 666.57 853.51 674.69 866.13 675.99 881.01 C 682.19 909.89 645.69 941.87 620.75 919.25 C 609.86 908.39 609.00 893.06 610.00 879.00 C 611.47 866.99 612.92 855.18 620.30 846.30 C 630.39 835.81 649.28 837.41 662.00 840.00
M 368.00 891.00 
C 384.44 910.55 357.09 935.53 337.32 925.68 C 323.05 925.23 327.37 908.87 325.00 901.00
C 327.84 903.47 328.13 899.90 327.00 898.00
C 340.47 893.31 342.93 908.42 352.00 916.00
C 355.16 916.49 353.09 909.77 357.00 913.00
C 362.04 906.55 351.38 900.61 350.02 892.98 C 348.28 885.44 340.13 879.90 336.08 872.92 C 333.06 867.50 329.99 855.04 340.00 855.00
C 339.53 851.55 342.85 849.29 343.00 846.00
C 337.67 847.50 340.01 854.58 334.00 855.00
C 333.55 849.70 339.08 846.64 339.00 842.00
C 347.79 842.82 356.38 838.82 364.69 840.65 C 374.33 840.41 375.09 852.03 374.00 860.00 C 368.30 867.91 361.37 856.99 357.97 853.03 C 351.37 856.67 356.25 869.03 360.08 872.92 C 362.66 878.20 373.67 884.82 368.00 891.00
M 396.00 855.00 
C 387.42 863.03 375.21 847.75 386.01 844.01 C 395.75 842.03 406.17 842.64 416.01 841.01 C 423.27 840.52 442.03 837.36 434.91 848.92 C 425.70 848.99 409.78 846.88 414.00 861.00 C 414.65 871.65 413.87 881.10 414.33 891.67 C 412.37 900.11 417.19 913.34 411.30 920.30 C 409.49 930.50 397.79 933.09 397.22 920.78 C 394.56 899.34 396.68 876.87 396.00 855.00
M 496.00 841.00 
C 500.90 866.50 511.67 901.96 485.25 920.25 C 480.87 926.55 460.71 927.17 464.00 919.00
C 459.40 919.31 454.71 916.71 454.00 912.00
C 448.46 914.92 446.25 900.19 445.35 895.31 C 444.72 877.78 445.17 864.63 444.00 847.00
C 448.34 848.16 454.76 839.44 459.30 847.70 C 469.11 858.46 465.23 876.80 465.21 890.23 C 463.33 897.29 474.13 903.48 470.00 908.00
C 498.76 902.42 490.56 867.40 486.00 846.00
C 489.23 845.08 491.66 840.39 496.00 841.00
M 544.00 929.00 
C 535.68 925.67 526.93 929.68 518.00 929.00
C 515.96 925.19 506.77 918.15 513.75 912.75 C 519.62 899.86 514.16 886.70 518.00 873.00
C 511.11 871.77 514.03 858.07 510.00 853.00
C 525.14 835.15 565.60 844.16 568.93 869.07 C 569.76 885.13 562.77 901.20 555.08 915.08 C 553.97 923.52 537.48 923.28 544.00 929.00
M 597.00 853.00 
C 596.63 866.34 600.82 878.53 600.00 892.00 C 596.69 903.24 603.86 913.95 598.00 924.00
C 587.88 930.14 576.69 923.67 578.33 911.33 C 580.15 891.27 579.18 874.17 579.00 853.00
C 584.65 850.65 591.36 850.19 597.00 853.00
M 336.00 894.00 
C 335.82 898.35 330.88 893.90 336.00 894.00 Z"/>
</g>
<g fill="None" fill-opacity="0.0" stroke="#CA367F" stroke-opacity="1.00" stroke-width="0.3"><path d="
M 617.00 413.00 
C 676.93 488.42 637.73 613.92 545.78 642.78 C 452.84 679.77 340.16 600.17 346.00 500.00 C 341.84 399.96 454.95 322.41 547.00 360.00
C 565.76 322.32 586.08 285.30 605.00 248.00
C 590.99 256.68 578.05 267.94 564.25 277.25 C 549.72 285.83 537.63 305.02 519.00 298.00 C 497.74 294.47 476.00 296.81 455.07 300.07 C 344.98 319.50 267.11 441.09 298.22 549.78 C 323.68 658.02 448.70 729.40 554.78 692.78 C 662.90 662.53 727.03 532.71 684.78 428.22 C 671.66 411.61 684.92 394.28 690.68 377.68 C 696.75 360.97 704.31 344.80 710.00 328.00
C 678.82 355.97 647.83 384.86 617.00 413.00 Z"/>
</g>
<g fill="None" fill-opacity="0.0" stroke="#DECA3F" stroke-opacity="1.00" stroke-width="0.3"><path d="
M 617.00 413.00 
C 596.01 430.84 576.09 450.22 555.00 468.00
C 574.86 504.64 552.80 555.46 512.02 565.02 C 471.47 577.20 426.02 543.23 427.00 501.00 C 424.03 458.12 468.57 422.91 510.00 433.00
C 521.53 408.38 534.60 384.30 547.00 360.00
C 454.95 322.41 341.84 399.96 346.00 500.00 C 340.16 600.17 452.84 679.77 545.78 642.78 C 637.73 613.92 676.93 488.42 617.00 413.00 Z"/>
</g>
<g fill="None" fill-opacity="0.0" stroke="#F5F6F8" stroke-opacity="1.00" stroke-width="0.3"><path d="
M 501.00 452.00 
C 466.03 446.35 435.96 486.29 452.23 517.77 C 465.19 548.45 511.72 553.57 531.08 526.08 C 552.65 499.75 533.92 456.11 501.00 452.00 Z"/>
</g>
<g fill="None" fill-opacity="0.0" stroke="#F5F6F8" stroke-opacity="1.00" stroke-width="0.3"><path d="
M 599.00 806.00 
C 600.60 792.14 598.76 780.00 598.93 766.07 C 595.90 756.90 598.17 733.96 581.00 743.00
C 581.76 750.05 580.03 758.55 583.00 766.00
C 578.95 764.84 580.95 771.02 583.00 772.00
C 578.60 772.13 581.11 775.18 582.00 777.00
C 578.09 776.94 579.02 781.67 582.00 778.00
C 577.25 784.59 579.35 795.45 580.01 803.99 C 578.43 814.26 590.26 817.27 599.00 816.00 C 607.11 814.45 617.99 813.16 622.00 806.00
C 614.51 803.35 606.90 807.17 599.00 806.00 Z"/>
</g>
<g fill="None" fill-opacity="0.0" stroke="#F5F6F8" stroke-opacity="1.00" stroke-width="0.3"><path d="
M 302.00 785.00 
C 312.26 780.85 323.38 768.82 316.92 757.08 C 312.49 745.10 298.60 737.94 287.22 745.22 C 270.20 741.68 277.51 761.50 277.00 771.00 C 276.72 785.59 278.88 797.22 277.00 811.00
C 280.03 813.19 283.04 816.52 288.00 815.00
C 291.83 809.01 297.10 803.00 295.00 794.00
C 302.08 798.56 306.38 815.11 316.73 807.75 C 316.65 799.67 307.63 791.26 302.00 785.00
M 295.00 774.00 
C 295.21 766.57 294.10 757.71 292.00 750.00
C 303.49 751.58 303.86 767.54 295.00 774.00 Z"/>
</g>
<g fill="None" fill-opacity="0.0" stroke="#F5F6F8" stroke-opacity="1.00" stroke-width="0.3"><path d="
M 458.00 762.00 
C 467.55 741.91 443.85 740.40 430.00 744.00
C 429.85 747.07 427.19 750.91 425.00 752.00
C 426.46 760.27 424.32 769.78 433.25 776.75 C 440.09 785.00 441.62 793.51 447.00 801.00
C 446.00 803.01 442.68 802.51 442.00 805.00
C 435.48 803.78 432.50 789.96 428.00 794.00
C 427.51 791.57 430.18 787.76 426.00 788.00
C 425.80 790.51 422.85 790.09 420.00 790.00
C 414.51 804.38 424.27 818.57 439.92 815.92 C 451.50 813.71 464.04 800.83 456.76 787.25 C 456.13 775.53 441.02 766.92 443.00 754.00
C 450.48 750.68 449.04 764.03 458.00 762.00
M 433.00 748.00 
C 430.70 750.88 432.58 754.98 428.00 756.00
C 429.59 753.49 429.64 748.61 433.00 748.00
M 437.00 806.00 
C 430.81 803.59 435.40 800.16 437.00 806.00 Z"/>
</g>
<g fill="None" fill-opacity="0.0" stroke="#F5F6F8" stroke-opacity="1.00" stroke-width="0.3"><path d="
M 510.00 742.00 
C 500.47 743.21 490.72 743.38 481.25 744.80 C 473.42 743.24 459.83 747.24 469.00 757.00
C 471.96 756.11 475.07 755.89 478.00 755.00
C 478.00 767.33 478.00 779.67 478.00 792.00 C 478.58 799.91 474.71 820.80 487.68 815.68 C 497.47 797.30 491.17 773.84 493.00 752.00
C 499.09 747.67 516.85 754.36 510.00 742.00 Z"/>
</g>
<g fill="None" fill-opacity="0.0" stroke="#F5F6F8" stroke-opacity="1.00" stroke-width="0.3"><path d="
M 702.00 785.00 
C 712.26 780.85 723.38 768.82 716.92 757.08 C 712.49 745.11 698.60 737.94 687.22 745.22 C 670.20 741.68 677.51 761.50 677.00 771.00 C 676.72 785.59 678.87 797.22 677.00 811.00
C 680.03 813.19 683.04 816.52 688.00 815.00
C 691.83 809.01 697.10 803.00 695.00 794.00
C 702.08 798.56 706.38 815.11 716.74 807.75 C 716.65 799.67 707.63 791.26 702.00 785.00
M 695.00 774.00 
C 695.21 766.57 694.10 757.71 692.00 750.00
C 703.49 751.58 703.86 767.54 695.00 774.00 Z"/>
</g>
<g fill="None" fill-opacity="0.0" stroke="#F5F6F8" stroke-opacity="1.00" stroke-width="0.3"><path d="
M 736.00 788.00 
C 731.61 789.37 724.24 791.30 726.78 797.78 C 724.70 803.30 728.19 812.93 734.78 813.22 C 751.45 823.43 775.76 802.02 762.29 784.30 C 765.29 780.14 758.30 773.62 755.25 769.75 C 752.07 765.98 747.55 754.28 754.30 753.70 C 755.53 759.02 766.48 766.10 767.21 756.23 C 770.42 738.15 748.92 743.09 738.00 744.00
C 732.44 754.63 729.32 767.30 741.25 776.75 C 747.36 779.87 744.89 791.64 751.00 791.00
C 751.62 795.13 753.62 798.84 754.00 803.00
C 750.12 801.69 750.27 803.24 749.00 806.00
C 744.87 799.59 737.44 794.91 736.00 788.00
M 741.00 748.00 
C 739.58 750.73 739.37 754.67 736.00 756.00
C 737.35 753.37 737.17 748.20 741.00 748.00
M 730.00 801.00 
C 732.10 807.55 727.09 805.57 730.00 801.00 Z"/>
</g>
<g fill="None" fill-opacity="0.0" stroke="#F5F6F8" stroke-opacity="1.00" stroke-width="0.3"><path d="
M 548.00 772.00 
C 546.00 763.69 541.12 756.62 536.77 749.23 C 534.11 741.79 516.96 740.31 518.25 749.75 C 522.06 755.76 529.46 762.97 531.41 767.25 C 534.76 774.69 538.21 782.42 542.00 789.00
C 533.93 794.74 534.06 807.20 531.00 815.00
C 544.56 822.48 548.27 805.08 552.08 796.08 C 558.21 786.55 558.88 776.47 564.08 767.08 C 567.86 761.26 578.82 741.39 563.25 744.25 C 556.34 752.51 554.88 764.01 548.00 772.00
M 555.00 775.00 
C 556.69 781.23 549.25 776.95 555.00 775.00 Z"/>
</g>
<g fill="None" fill-opacity="0.0" stroke="#F5F6F8" stroke-opacity="1.00" stroke-width="0.3"><path d="
M 249.00 755.00 
C 255.15 753.41 261.05 755.45 266.89 752.89 C 270.95 745.52 257.23 748.79 253.00 747.00 C 247.34 746.65 242.63 742.72 237.00 744.00
C 233.70 762.89 232.43 782.98 233.00 802.00 C 228.95 813.93 240.93 819.61 249.00 814.00
C 251.71 801.46 248.25 788.82 249.00 776.00
C 254.42 775.63 260.85 775.00 264.92 772.08 C 261.59 767.03 254.43 771.35 249.00 770.00
C 248.60 764.61 248.06 760.28 249.00 755.00 Z"/>
</g>
<g fill="None" fill-opacity="0.0" stroke="#F5F6F8" stroke-opacity="1.00" stroke-width="0.3"><path d="
M 362.00 747.00 
C 349.40 745.85 337.95 747.02 326.00 746.00
C 327.94 756.55 327.10 768.61 325.41 777.25 C 327.80 789.33 326.83 800.84 328.00 813.00
C 339.19 818.44 358.69 819.10 364.00 805.00
C 358.75 802.52 353.53 805.66 348.00 805.00
C 349.32 798.44 344.56 786.17 355.97 787.97 C 367.29 784.03 354.54 776.35 348.00 781.00
C 347.52 771.51 350.29 762.52 346.00 754.00
C 351.93 753.49 362.46 754.44 362.00 747.00
M 330.00 776.00 
C 333.34 782.96 327.81 781.05 330.00 776.00 Z"/>
</g>
<g fill="None" fill-opacity="0.0" stroke="#F5F6F8" stroke-opacity="1.00" stroke-width="0.3"><path d="
M 408.00 747.00 
C 395.81 745.76 384.50 747.31 373.00 746.00
C 374.35 763.15 369.90 777.74 375.00 794.00
C 371.83 789.05 371.23 799.97 374.22 799.44 C 375.08 802.51 373.25 808.56 374.00 813.00
C 384.86 818.05 403.96 819.36 411.00 805.00
C 405.43 802.46 399.82 805.58 394.00 805.00
C 395.74 798.54 390.64 786.29 401.97 787.97 C 413.60 784.21 400.97 776.20 394.00 781.00
C 394.05 772.29 396.33 762.43 392.00 754.00
C 397.79 753.43 408.59 754.53 408.00 747.00
M 377.00 773.00 
C 376.25 775.91 376.90 777.90 377.00 781.00
C 375.14 779.06 374.10 774.73 377.00 773.00 Z"/>
</g>
<g fill="None" fill-opacity="0.0" stroke="#F5F6F8" stroke-opacity="1.00" stroke-width="0.3"><path d="
M 666.00 747.00 
C 653.81 745.76 642.50 747.31 631.00 746.00
C 632.35 763.15 627.90 777.74 633.00 794.00
C 629.74 789.75 629.67 798.18 631.60 800.25 C 631.29 803.94 632.53 808.63 632.00 813.00
C 643.74 817.92 662.11 819.28 669.00 805.00
C 663.69 800.48 651.80 810.53 652.07 801.07 C 652.10 794.54 651.53 785.54 661.75 787.75 C 670.83 781.36 657.71 777.63 652.00 781.00
C 652.05 772.29 654.33 762.43 650.00 754.00
C 655.79 753.43 666.59 754.53 666.00 747.00
M 635.00 773.00 
C 634.25 775.91 634.90 777.90 635.00 781.00
C 633.14 779.06 632.10 774.73 635.00 773.00 Z"/>
</g>
<g fill="None" fill-opacity="0.0" stroke="#000000" stroke-opacity="1.00" stroke-width="0.3"><path d="
M 433.00 748.00 
C 429.64 748.61 429.59 753.49 428.00 756.00
C 432.58 754.98 430.70 750.88 433.00 748.00 Z"/>
</g>
<g fill="None" fill-opacity="0.0" stroke="#000000" stroke-opacity="1.00" stroke-width="0.3"><path d="
M 741.00 748.00 
C 737.17 748.20 737.35 753.37 736.00 756.00
C 739.37 754.67 739.58 750.73 741.00 748.00 Z"/>
</g>
<g fill="None" fill-opacity="0.0" stroke="#000000" stroke-opacity="1.00" stroke-width="0.3"><path d="
M 295.00 774.00 
C 303.86 767.54 303.49 751.58 292.00 750.00
C 294.10 757.71 295.21 766.57 295.00 774.00 Z"/>
</g>
<g fill="None" fill-opacity="0.0" stroke="#000000" stroke-opacity="1.00" stroke-width="0.3"><path d="
M 695.00 774.00 
C 703.86 767.54 703.49 751.58 692.00 750.00
C 694.10 757.71 695.21 766.57 695.00 774.00 Z"/>
</g>
<g fill="None" fill-opacity="0.0" stroke="#000000" stroke-opacity="1.00" stroke-width="0.3"><path d="
M 377.00 773.00 
C 374.10 774.73 375.14 779.06 377.00 781.00
C 376.90 777.90 376.25 775.91 377.00 773.00 Z"/>
</g>
<g fill="None" fill-opacity="0.0" stroke="#000000" stroke-opacity="1.00" stroke-width="0.3"><path d="
M 635.00 773.00 
C 632.10 774.73 633.14 779.06 635.00 781.00
C 634.90 777.90 634.25 775.91 635.00 773.00 Z"/>
</g>
<g fill="None" fill-opacity="0.0" stroke="#CA367F" stroke-opacity="1.00" stroke-width="0.3"><path d="
M 555.00 775.00 
C 549.25 776.95 556.69 781.23 555.00 775.00 Z"/>
</g>
<g fill="None" fill-opacity="0.0" stroke="#000000" stroke-opacity="1.00" stroke-width="0.3"><path d="
M 330.00 776.00 
C 327.81 781.05 333.34 782.96 330.00 776.00 Z"/>
</g>
<g fill="None" fill-opacity="0.0" stroke="#000000" stroke-opacity="0.01" stroke-width="0.3"><path d="
M 515.00 782.00 
C 511.08 788.95 512.95 801.21 514.00 809.00
C 516.81 799.64 520.89 791.13 515.00 782.00 Z"/>
</g>
<g fill="None" fill-opacity="0.0" stroke="#000000" stroke-opacity="1.00" stroke-width="0.3"><path d="
M 730.00 801.00 
C 727.09 805.57 732.10 807.55 730.00 801.00 Z"/>
</g>
<g fill="None" fill-opacity="0.0" stroke="#000000" stroke-opacity="1.00" stroke-width="0.3"><path d="
M 437.00 806.00 
C 435.40 800.16 430.81 803.59 437.00 806.00 Z"/>
</g>
<g fill="None" fill-opacity="0.0" stroke="#000000" stroke-opacity="0.01" stroke-width="0.3"><path d="
M 511.00 819.00 
C 508.46 822.63 505.21 826.45 504.00 831.00
C 507.73 833.89 510.92 831.80 515.00 831.00
C 514.23 826.81 511.19 823.33 511.00 819.00 Z"/>
</g>
<g fill="None" fill-opacity="0.0" stroke="#000000" stroke-opacity="0.01" stroke-width="0.3"><path d="
M 568.00 830.00 
C 566.99 828.29 565.22 825.95 563.00 826.00
C 562.51 829.92 557.65 831.52 556.00 835.00
C 558.97 835.12 561.05 837.87 564.00 838.00
C 563.51 834.58 566.33 832.54 568.00 830.00 Z"/>
</g>
<g fill="None" fill-opacity="0.0" stroke="#DECA3F" stroke-opacity="1.00" stroke-width="0.3"><path d="
M 594.00 843.00 
C 601.09 835.34 591.85 831.92 584.25 834.25 C 576.41 840.53 588.54 843.99 594.00 843.00 Z"/>
</g>
<g fill="None" fill-opacity="0.0" stroke="#DECA3F" stroke-opacity="1.00" stroke-width="0.3"><path d="
M 662.00 840.00 
C 649.28 837.41 630.39 835.81 620.30 846.30 C 612.92 855.18 611.47 866.99 610.00 879.00 C 609.00 893.06 609.86 908.39 620.75 919.25 C 645.69 941.87 682.19 909.89 675.99 881.01 C 674.69 866.13 666.57 853.51 662.00 840.00
M 640.00 855.00 
C 649.88 857.76 652.96 869.05 653.93 878.08 C 654.11 889.63 655.59 900.09 645.75 907.75 C 633.49 912.55 630.66 894.21 632.00 885.00 C 632.39 874.38 632.52 863.45 640.00 855.00 Z"/>
</g>
<g fill="None" fill-opacity="0.0" stroke="#DECA3F" stroke-opacity="1.00" stroke-width="0.3"><path d="
M 368.00 891.00 
C 373.67 884.82 362.66 878.20 360.08 872.92 C 356.25 869.03 351.37 856.67 357.97 853.03 C 361.37 856.99 368.30 867.91 374.00 860.00 C 375.09 852.03 374.33 840.41 364.69 840.65 C 356.38 838.82 347.79 842.82 339.00 842.00
C 339.08 846.64 333.55 849.70 334.00 855.00
C 340.01 854.58 337.67 847.50 343.00 846.00
C 342.85 849.29 339.53 851.55 340.00 855.00
C 329.99 855.04 333.06 867.50 336.08 872.92 C 340.13 879.90 348.28 885.44 350.02 892.98 C 351.38 900.61 362.04 906.55 357.00 913.00
C 353.09 909.77 355.16 916.49 352.00 916.00
C 342.93 908.42 340.47 893.31 327.00 898.00
C 328.13 899.90 327.84 903.47 325.00 901.00
C 327.37 908.87 323.05 925.23 337.32 925.68 C 357.09 935.53 384.44 910.55 368.00 891.00
M 329.00 908.00 
C 331.15 915.16 325.84 913.47 329.00 908.00
M 345.00 912.00 
C 342.18 915.21 341.26 909.11 345.00 912.00
M 333.00 923.00 
C 327.79 920.59 332.26 917.50 333.00 923.00 Z"/>
</g>
<g fill="None" fill-opacity="0.0" stroke="#DECA3F" stroke-opacity="1.00" stroke-width="0.3"><path d="
M 396.00 855.00 
C 396.68 876.87 394.56 899.34 397.22 920.78 C 397.79 933.09 409.49 930.50 411.30 920.30 C 417.19 913.34 412.37 900.11 414.33 891.67 C 413.87 881.10 414.65 871.65 414.00 861.00 C 409.78 846.88 425.70 848.99 434.91 848.92 C 442.03 837.36 423.27 840.52 416.01 841.01 C 406.17 842.64 395.75 842.03 386.01 844.01 C 375.21 847.75 387.42 863.03 396.00 855.00 Z"/>
</g>
<g fill="None" fill-opacity="0.0" stroke="#DECA3F" stroke-opacity="1.00" stroke-width="0.3"><path d="
M 496.00 841.00 
C 491.66 840.39 489.23 845.08 486.00 846.00
C 490.56 867.40 498.76 902.42 470.00 908.00
C 474.13 903.48 463.33 897.29 465.21 890.23 C 465.23 876.80 469.11 858.46 459.30 847.70 C 454.76 839.44 448.34 848.16 444.00 847.00
C 445.17 864.63 444.72 877.78 445.35 895.31 C 446.25 900.19 448.46 914.92 454.00 912.00
C 454.71 916.71 459.40 919.31 464.00 919.00
C 460.71 927.17 480.87 926.55 485.25 920.25 C 511.67 901.96 500.90 866.50 496.00 841.00 Z"/>
</g>
<g fill="None" fill-opacity="0.0" stroke="#DECA3F" stroke-opacity="1.00" stroke-width="0.3"><path d="
M 544.00 929.00 
C 537.48 923.28 553.97 923.52 555.08 915.08 C 562.77 901.20 569.76 885.13 568.93 869.07 C 565.60 844.16 525.14 835.15 510.00 853.00
C 514.03 858.07 511.11 871.77 518.00 873.00
C 514.16 886.70 519.62 899.86 513.75 912.75 C 506.77 918.15 515.96 925.19 518.00 929.00
C 526.93 929.68 535.68 925.67 544.00 929.00
M 536.00 912.00 
C 533.26 904.57 536.26 894.01 536.00 885.00 C 536.16 875.38 536.58 865.08 535.00 856.00
C 556.92 868.36 546.78 896.47 536.00 912.00 Z"/>
</g>
<g fill="None" fill-opacity="0.0" stroke="#DECA3F" stroke-opacity="1.00" stroke-width="0.3"><path d="
M 597.00 853.00 
C 591.36 850.19 584.65 850.65 579.00 853.00
C 579.18 874.17 580.15 891.27 578.33 911.33 C 576.69 923.67 587.88 930.14 598.00 924.00
C 603.86 913.95 596.69 903.24 600.00 892.00 C 600.82 878.53 596.63 866.34 597.00 853.00 Z"/>
</g>
<g fill="None" fill-opacity="0.0" stroke="#000000" stroke-opacity="1.00" stroke-width="0.3"><path d="
M 640.00 855.00 
C 632.52 863.45 632.39 874.38 632.00 885.00 C 630.66 894.21 633.49 912.55 645.75 907.75 C 655.59 900.09 654.11 889.63 653.93 878.08 C 652.96 869.05 649.88 857.76 640.00 855.00 Z"/>
</g>
<g fill="None" fill-opacity="0.0" stroke="#000000" stroke-opacity="1.00" stroke-width="0.3"><path d="
M 536.00 912.00 
C 546.78 896.47 556.92 868.36 535.00 856.00
C 536.58 865.08 536.16 875.38 536.00 885.00 C 536.26 894.01 533.26 904.57 536.00 912.00 Z"/>
</g>
<g fill="None" fill-opacity="0.0" stroke="#DECA3F" stroke-opacity="1.00" stroke-width="0.3"><path d="
M 336.00 894.00 
C 330.88 893.90 335.82 898.35 336.00 894.00 Z"/>
</g>
<g fill="None" fill-opacity="0.0" stroke="#000000" stroke-opacity="1.00" stroke-width="0.3"><path d="
M 329.00 908.00 
C 325.84 913.47 331.15 915.16 329.00 908.00 Z"/>
</g>
<g fill="None" fill-opacity="0.0" stroke="#000000" stroke-opacity="1.00" stroke-width="0.3"><path d="
M 345.00 912.00 
C 341.26 909.11 342.18 915.21 345.00 912.00 Z"/>
</g>
<g fill="None" fill-opacity="0.0" stroke="#000000" stroke-opacity="1.00" stroke-width="0.3"><path d="
M 333.00 923.00 
C 332.26 917.50 327.79 920.59 333.00 923.00 Z"/>
</g>
<g fill="#000000" fill-opacity="0.00" stroke="None"><path d="
M 0.00 1000.00 
L 1000.00 1000.00
L 1000.00 0.00
L 0.00 0.00
L 0.00 1000.00 Z"/>
</g>
<g fill="#000000" fill-opacity="1.00" stroke="None"><path d="
M 783.00 249.00 
C 797.05 238.12 813.09 230.48 826.25 218.25 C 845.52 204.43 822.93 186.93 810.25 178.75 C 782.60 157.37 755.24 135.54 727.25 114.75 C 715.58 102.73 694.80 87.01 682.32 107.32 C 675.65 125.15 669.50 143.10 663.00 161.00
C 625.04 143.18 585.09 130.18 543.01 125.99 C 361.73 101.10 178.74 229.11 129.25 402.25 C 112.33 410.29 94.40 417.30 79.75 429.75 C 28.68 469.41 5.39 530.79 13.02 594.98 C 25.57 670.29 93.09 741.77 172.00 745.00 C 194.74 747.30 216.34 745.16 231.92 727.92 C 246.44 719.23 269.86 701.87 250.77 685.23 C 177.97 583.59 178.77 432.21 252.25 331.25 C 335.52 209.50 508.39 173.21 637.00 237.00
C 626.92 263.71 617.95 290.74 608.78 317.78 C 600.36 330.05 603.17 345.64 617.32 352.68 C 629.93 357.43 640.84 343.45 651.30 337.30 C 673.50 323.41 694.50 307.10 717.00 294.00
C 819.46 396.26 831.62 572.76 746.77 688.77 C 736.29 702.50 754.96 714.95 765.25 721.75 C 777.44 729.80 788.04 742.07 803.00 744.00 C 880.24 752.73 955.45 697.37 981.07 626.07 C 1017.47 536.84 962.20 425.95 870.26 399.74 C 852.15 344.43 823.43 292.70 783.00 249.00 Z"/>
</g>
<g fill="#CA367F" fill-opacity="1.00" stroke="None"><path d="
M 229.00 698.00 
C 219.13 684.83 209.30 671.49 202.00 657.00
C 149.63 680.60 90.15 636.43 84.00 583.00 C 71.72 530.16 104.52 465.67 161.00 459.00
C 170.56 351.41 240.85 251.17 337.23 200.23 C 441.97 142.36 580.65 148.99 681.00 210.00
C 672.65 234.35 663.34 258.33 656.00 283.00
C 671.55 273.35 686.51 262.90 701.75 252.75 C 709.26 249.84 717.46 236.27 725.25 242.75 C 782.94 294.88 822.97 363.29 835.78 438.22 C 837.73 449.08 834.75 465.44 851.00 462.00 C 947.80 477.50 954.14 636.33 860.98 662.98 C 839.82 670.20 817.08 663.98 798.00 655.00
C 791.40 669.26 782.08 682.93 772.00 695.00
C 783.53 702.73 793.97 716.11 809.00 716.00 C 855.67 718.97 899.42 700.25 930.75 665.75 C 1007.15 589.45 974.50 439.51 868.02 409.98 C 849.00 410.40 851.14 388.99 844.93 376.07 C 826.52 323.44 793.87 277.01 755.00 236.00
C 775.41 223.75 795.49 209.75 815.00 196.00
C 775.97 166.90 738.12 136.00 699.00 107.00
C 690.57 130.67 682.56 154.39 674.00 178.00
C 571.25 121.55 437.17 119.78 333.23 174.23 C 241.18 220.86 168.05 310.71 145.00 410.00
C 93.52 420.59 49.64 465.32 36.93 515.93 C 7.41 607.87 80.39 716.62 178.00 718.00 C 198.92 722.52 215.13 711.27 229.00 698.00 Z"/>
</g>
<g fill="#DECA3F" fill-opacity="1.00" stroke="None"><path d="
M 229.00 698.00 
C 232.91 697.35 235.10 692.66 239.00 692.00
C 162.94 590.81 156.05 440.53 223.23 333.23 C 306.70 188.62 506.34 134.03 650.31 214.69 C 667.89 219.36 650.23 237.34 649.77 248.77 C 640.36 273.98 631.67 299.54 623.00 325.00
C 654.67 304.96 686.08 283.28 717.00 262.00
C 838.97 365.98 856.60 562.14 763.00 689.00
C 765.94 691.11 768.65 693.54 772.00 695.00
C 782.08 682.93 791.40 669.26 798.00 655.00
C 817.08 663.98 839.82 670.20 860.98 662.98 C 954.14 636.33 947.80 477.50 851.00 462.00 C 834.75 465.44 837.73 449.08 835.78 438.22 C 822.97 363.29 782.94 294.88 725.25 242.75 C 717.46 236.27 709.26 249.84 701.75 252.75 C 686.51 262.90 671.55 273.35 656.00 283.00
C 663.34 258.33 672.65 234.35 681.00 210.00
C 580.65 148.99 441.97 142.36 337.23 200.23 C 240.85 251.17 170.56 351.41 161.00 459.00
C 104.52 465.67 71.72 530.16 84.00 583.00 C 90.15 636.43 149.63 680.60 202.00 657.00
C 209.30 671.49 219.13 684.83 229.00 698.00 Z"/>
</g>
<g fill="#000000" fill-opacity="1.00" stroke="None"><path d="
M 526.00 451.00 
C 551.86 400.00 577.45 349.40 604.08 299.08 C 609.00 281.79 631.00 264.80 621.25 246.75 C 607.59 225.60 588.31 245.74 575.08 256.08 C 560.14 266.25 545.97 277.73 531.00 288.00 C 410.61 265.33 286.65 362.50 273.78 482.78 C 256.56 604.46 361.11 724.39 482.00 730.00
C 461.40 737.16 435.85 719.60 418.00 738.00
C 408.60 731.13 397.39 731.95 386.07 732.93 C 375.49 728.30 366.27 738.06 356.00 732.00 C 345.10 735.55 333.48 728.47 323.68 733.68 C 313.82 739.03 305.47 725.20 294.02 729.02 C 284.50 731.20 274.40 733.16 265.00 734.00 C 253.65 735.93 243.12 725.58 232.68 732.68 C 208.70 741.85 216.17 771.32 215.00 792.00 C 216.49 803.54 211.83 817.22 217.70 827.30 C 228.02 846.38 252.65 845.37 265.00 829.00
C 269.30 835.26 275.72 839.76 283.00 841.00 C 291.67 843.27 296.44 832.49 303.31 832.69 C 310.23 837.93 317.59 832.91 324.00 837.00
C 311.66 851.63 309.20 871.38 319.00 888.00
C 298.27 901.11 300.70 929.56 319.75 943.25 C 337.41 958.89 365.74 955.38 380.00 937.00
C 385.67 947.44 398.16 959.75 410.77 953.77 C 422.06 947.94 428.06 935.78 433.00 925.00
C 441.13 934.08 450.90 942.76 460.31 950.69 C 472.94 954.84 487.31 947.51 498.00 940.00
C 505.25 950.91 518.74 964.24 532.00 954.00 C 539.34 952.50 545.62 956.28 552.25 951.25 C 556.74 947.03 560.65 941.94 566.00 939.00
C 574.92 957.70 599.61 953.82 612.00 941.00
C 632.39 964.78 673.02 949.38 684.75 923.75 C 706.71 898.88 692.14 864.84 679.00 840.00
C 690.83 846.95 697.44 827.62 707.78 834.22 C 718.25 835.04 727.92 835.70 738.33 840.67 C 759.19 844.40 782.00 826.08 785.00 806.00 C 788.84 794.57 775.51 782.46 783.68 773.68 C 784.98 763.09 788.77 747.85 778.75 740.25 C 764.47 723.34 736.45 726.05 722.00 741.00
C 708.97 722.53 684.69 731.02 668.03 733.98 C 649.32 732.22 624.91 726.11 613.00 746.00
C 610.32 738.53 603.78 731.35 596.00 729.00 C 585.51 726.93 576.20 732.52 567.08 729.94 C 559.13 728.74 552.41 736.14 546.00 740.00
C 541.59 731.76 531.56 730.79 525.00 728.00
C 645.85 712.81 742.57 583.25 711.99 462.01 C 711.40 444.29 695.40 428.37 700.23 411.23 C 707.02 395.75 712.95 379.93 719.22 364.22 C 724.93 349.86 737.71 331.11 719.23 319.77 C 703.41 309.23 692.54 331.87 680.25 339.25 C 635.06 382.63 587.68 422.32 542.00 465.00
C 537.62 459.41 532.00 454.53 526.00 451.00
M 515.00 782.00 
C 520.89 791.13 516.81 799.64 514.00 809.00
C 512.95 801.21 511.08 788.95 515.00 782.00
M 511.00 819.00 
C 511.19 823.33 514.23 826.81 515.00 831.00
C 510.92 831.80 507.73 833.89 504.00 831.00
C 505.21 826.45 508.46 822.63 511.00 819.00
M 568.00 830.00 
C 566.33 832.54 563.51 834.58 564.00 838.00
C 561.05 837.87 558.97 835.12 556.00 835.00
C 557.65 831.52 562.51 829.92 563.00 826.00
C 565.22 825.95 566.99 828.29 568.00 830.00 Z"/>
</g>
<g fill="#CA367F" fill-opacity="1.00" stroke="None"><path d="
M 617.00 413.00 
C 676.93 488.42 637.73 613.92 545.78 642.78 C 452.84 679.77 340.16 600.17 346.00 500.00 C 341.84 399.96 454.95 322.41 547.00 360.00
C 565.76 322.32 586.08 285.30 605.00 248.00
C 590.99 256.68 578.05 267.94 564.25 277.25 C 549.72 285.83 537.63 305.02 519.00 298.00 C 497.74 294.47 476.00 296.81 455.07 300.07 C 344.98 319.50 267.11 441.09 298.22 549.78 C 323.68 658.02 448.70 729.40 554.78 692.78 C 662.90 662.53 727.03 532.71 684.78 428.22 C 671.66 411.61 684.92 394.28 690.68 377.68 C 696.75 360.97 704.31 344.80 710.00 328.00
C 678.82 355.97 647.83 384.86 617.00 413.00 Z"/>
</g>
<g fill="#DECA3F" fill-opacity="1.00" stroke="None"><path d="
M 617.00 413.00 
C 596.01 430.84 576.09 450.22 555.00 468.00
C 574.86 504.64 552.80 555.46 512.02 565.02 C 471.47 577.20 426.02 543.23 427.00 501.00 C 424.03 458.12 468.57 422.91 510.00 433.00
C 521.53 408.38 534.60 384.30 547.00 360.00
C 454.95 322.41 341.84 399.96 346.00 500.00 C 340.16 600.17 452.84 679.77 545.78 642.78 C 637.73 613.92 676.93 488.42 617.00 413.00 Z"/>
</g>
<g fill="#F5F6F8" fill-opacity="1.00" stroke="None"><path d="
M 501.00 452.00 
C 466.03 446.35 435.96 486.29 452.23 517.77 C 465.19 548.45 511.72 553.57 531.08 526.08 C 552.65 499.75 533.92 456.11 501.00 452.00 Z"/>
</g>
<g fill="#F5F6F8" fill-opacity="1.00" stroke="None"><path d="
M 599.00 806.00 
C 600.60 792.14 598.76 780.00 598.93 766.07 C 595.90 756.90 598.17 733.96 581.00 743.00
C 581.76 750.05 580.03 758.55 583.00 766.00
C 578.95 764.84 580.95 771.02 583.00 772.00
C 578.60 772.13 581.11 775.18 582.00 777.00
C 578.09 776.94 579.02 781.67 582.00 778.00
C 577.25 784.59 579.35 795.45 580.01 803.99 C 578.43 814.26 590.26 817.27 599.00 816.00 C 607.11 814.45 617.99 813.16 622.00 806.00
C 614.51 803.35 606.90 807.17 599.00 806.00 Z"/>
</g>
<g fill="#F5F6F8" fill-opacity="1.00" stroke="None"><path d="
M 302.00 785.00 
C 312.26 780.85 323.38 768.82 316.92 757.08 C 312.49 745.10 298.60 737.94 287.22 745.22 C 270.20 741.68 277.51 761.50 277.00 771.00 C 276.72 785.59 278.88 797.22 277.00 811.00
C 280.03 813.19 283.04 816.52 288.00 815.00
C 291.83 809.01 297.10 803.00 295.00 794.00
C 302.08 798.56 306.38 815.11 316.73 807.75 C 316.65 799.67 307.63 791.26 302.00 785.00 Z"/>
</g>
<g fill="#F5F6F8" fill-opacity="1.00" stroke="None"><path d="
M 458.00 762.00 
C 467.55 741.91 443.85 740.40 430.00 744.00
C 429.85 747.07 427.19 750.91 425.00 752.00
C 426.46 760.27 424.32 769.78 433.25 776.75 C 440.09 785.00 441.62 793.51 447.00 801.00
C 446.00 803.01 442.68 802.51 442.00 805.00
C 435.48 803.78 432.50 789.96 428.00 794.00
C 427.51 791.57 430.18 787.76 426.00 788.00
C 425.80 790.51 422.85 790.09 420.00 790.00
C 414.51 804.38 424.27 818.57 439.92 815.92 C 451.50 813.71 464.04 800.83 456.76 787.25 C 456.13 775.53 441.02 766.92 443.00 754.00
C 450.48 750.68 449.04 764.03 458.00 762.00 Z"/>
</g>
<g fill="#F5F6F8" fill-opacity="1.00" stroke="None"><path d="
M 510.00 742.00 
C 500.47 743.21 490.72 743.38 481.25 744.80 C 473.42 743.24 459.83 747.24 469.00 757.00
C 471.96 756.11 475.07 755.89 478.00 755.00
C 478.00 767.33 478.00 779.67 478.00 792.00 C 478.58 799.91 474.71 820.80 487.68 815.68 C 497.47 797.30 491.17 773.84 493.00 752.00
C 499.09 747.67 516.85 754.36 510.00 742.00 Z"/>
</g>
<g fill="#F5F6F8" fill-opacity="1.00" stroke="None"><path d="
M 702.00 785.00 
C 712.26 780.85 723.38 768.82 716.92 757.08 C 712.49 745.11 698.60 737.94 687.22 745.22 C 670.20 741.68 677.51 761.50 677.00 771.00 C 676.72 785.59 678.87 797.22 677.00 811.00
C 680.03 813.19 683.04 816.52 688.00 815.00
C 691.83 809.01 697.10 803.00 695.00 794.00
C 702.08 798.56 706.38 815.11 716.74 807.75 C 716.65 799.67 707.63 791.26 702.00 785.00 Z"/>
</g>
<g fill="#F5F6F8" fill-opacity="1.00" stroke="None"><path d="
M 736.00 788.00 
C 731.61 789.37 724.24 791.30 726.78 797.78 C 724.70 803.30 728.19 812.93 734.78 813.22 C 751.45 823.43 775.76 802.02 762.29 784.30 C 765.29 780.14 758.30 773.62 755.25 769.75 C 752.07 765.98 747.55 754.28 754.30 753.70 C 755.53 759.02 766.48 766.10 767.21 756.23 C 770.42 738.15 748.92 743.09 738.00 744.00
C 732.44 754.63 729.32 767.30 741.25 776.75 C 747.36 779.87 744.89 791.64 751.00 791.00
C 751.62 795.13 753.62 798.84 754.00 803.00
C 750.12 801.69 750.27 803.24 749.00 806.00
C 744.87 799.59 737.44 794.91 736.00 788.00 Z"/>
</g>
<g fill="#F5F6F8" fill-opacity="1.00" stroke="None"><path d="
M 548.00 772.00 
C 546.00 763.69 541.12 756.62 536.77 749.23 C 534.11 741.79 516.96 740.31 518.25 749.75 C 522.06 755.76 529.46 762.97 531.41 767.25 C 534.76 774.69 538.21 782.42 542.00 789.00
C 533.93 794.74 534.06 807.20 531.00 815.00
C 544.56 822.48 548.27 805.08 552.08 796.08 C 558.21 786.55 558.88 776.47 564.08 767.08 C 567.86 761.26 578.82 741.39 563.25 744.25 C 556.34 752.51 554.88 764.01 548.00 772.00 Z"/>
</g>
<g fill="#F5F6F8" fill-opacity="1.00" stroke="None"><path d="
M 249.00 755.00 
C 255.15 753.41 261.05 755.45 266.89 752.89 C 270.95 745.52 257.23 748.79 253.00 747.00 C 247.34 746.65 242.63 742.72 237.00 744.00
C 233.70 762.89 232.43 782.98 233.00 802.00 C 228.95 813.93 240.93 819.61 249.00 814.00
C 251.71 801.46 248.25 788.82 249.00 776.00
C 254.42 775.63 260.85 775.00 264.92 772.08 C 261.59 767.03 254.43 771.35 249.00 770.00
C 248.60 764.61 248.06 760.28 249.00 755.00 Z"/>
</g>
<g fill="#F5F6F8" fill-opacity="1.00" stroke="None"><path d="
M 362.00 747.00 
C 349.40 745.85 337.95 747.02 326.00 746.00
C 327.94 756.55 327.10 768.61 325.41 777.25 C 327.80 789.33 326.83 800.84 328.00 813.00
C 339.19 818.44 358.69 819.10 364.00 805.00
C 358.75 802.52 353.53 805.66 348.00 805.00
C 349.32 798.44 344.56 786.17 355.97 787.97 C 367.29 784.03 354.54 776.35 348.00 781.00
C 347.52 771.51 350.29 762.52 346.00 754.00
C 351.93 753.49 362.46 754.44 362.00 747.00 Z"/>
</g>
<g fill="#F5F6F8" fill-opacity="1.00" stroke="None"><path d="
M 408.00 747.00 
C 395.81 745.76 384.50 747.31 373.00 746.00
C 374.35 763.15 369.90 777.74 375.00 794.00
C 371.83 789.05 371.23 799.97 374.22 799.44 C 375.08 802.51 373.25 808.56 374.00 813.00
C 384.86 818.05 403.96 819.36 411.00 805.00
C 405.43 802.46 399.82 805.58 394.00 805.00
C 395.74 798.54 390.64 786.29 401.97 787.97 C 413.60 784.21 400.97 776.20 394.00 781.00
C 394.05 772.29 396.33 762.43 392.00 754.00
C 397.79 753.43 408.59 754.53 408.00 747.00 Z"/>
</g>
<g fill="#F5F6F8" fill-opacity="1.00" stroke="None"><path d="
M 666.00 747.00 
C 653.81 745.76 642.50 747.31 631.00 746.00
C 632.35 763.15 627.90 777.74 633.00 794.00
C 629.74 789.75 629.67 798.18 631.60 800.25 C 631.29 803.94 632.53 808.63 632.00 813.00
C 643.74 817.92 662.11 819.28 669.00 805.00
C 663.69 800.48 651.80 810.53 652.07 801.07 C 652.10 794.54 651.53 785.54 661.75 787.75 C 670.83 781.36 657.71 777.63 652.00 781.00
C 652.05 772.29 654.33 762.43 650.00 754.00
C 655.79 753.43 666.59 754.53 666.00 747.00 Z"/>
</g>
<g fill="#000000" fill-opacity="1.00" stroke="None"><path d="
M 433.00 748.00 
C 429.64 748.61 429.59 753.49 428.00 756.00
C 432.58 754.98 430.70 750.88 433.00 748.00 Z"/>
</g>
<g fill="#000000" fill-opacity="1.00" stroke="None"><path d="
M 741.00 748.00 
C 737.17 748.20 737.35 753.37 736.00 756.00
C 739.37 754.67 739.58 750.73 741.00 748.00 Z"/>
</g>
<g fill="#000000" fill-opacity="1.00" stroke="None"><path d="
M 295.00 774.00 
C 303.86 767.54 303.49 751.58 292.00 750.00
C 294.10 757.71 295.21 766.57 295.00 774.00 Z"/>
</g>
<g fill="#000000" fill-opacity="1.00" stroke="None"><path d="
M 695.00 774.00 
C 703.86 767.54 703.49 751.58 692.00 750.00
C 694.10 757.71 695.21 766.57 695.00 774.00 Z"/>
</g>
<g fill="#000000" fill-opacity="1.00" stroke="None"><path d="
M 377.00 773.00 
C 374.10 774.73 375.14 779.06 377.00 781.00
C 376.90 777.90 376.25 775.91 377.00 773.00 Z"/>
</g>
<g fill="#000000" fill-opacity="1.00" stroke="None"><path d="
M 635.00 773.00 
C 632.10 774.73 633.14 779.06 635.00 781.00
C 634.90 777.90 634.25 775.91 635.00 773.00 Z"/>
</g>
<g fill="#CA367F" fill-opacity="1.00" stroke="None"><path d="
M 555.00 775.00 
C 549.25 776.95 556.69 781.23 555.00 775.00 Z"/>
</g>
<g fill="#000000" fill-opacity="1.00" stroke="None"><path d="
M 330.00 776.00 
C 327.81 781.05 333.34 782.96 330.00 776.00 Z"/>
</g>
<g fill="#000000" fill-opacity="0.01" stroke="None"><path d="
M 515.00 782.00 
C 511.08 788.95 512.95 801.21 514.00 809.00
C 516.81 799.64 520.89 791.13 515.00 782.00 Z"/>
</g>
<g fill="#000000" fill-opacity="1.00" stroke="None"><path d="
M 730.00 801.00 
C 727.09 805.57 732.10 807.55 730.00 801.00 Z"/>
</g>
<g fill="#000000" fill-opacity="1.00" stroke="None"><path d="
M 437.00 806.00 
C 435.40 800.16 430.81 803.59 437.00 806.00 Z"/>
</g>
<g fill="#000000" fill-opacity="0.01" stroke="None"><path d="
M 511.00 819.00 
C 508.46 822.63 505.21 826.45 504.00 831.00
C 507.73 833.89 510.92 831.80 515.00 831.00
C 514.23 826.81 511.19 823.33 511.00 819.00 Z"/>
</g>
<g fill="#000000" fill-opacity="0.01" stroke="None"><path d="
M 568.00 830.00 
C 566.99 828.29 565.22 825.95 563.00 826.00
C 562.51 829.92 557.65 831.52 556.00 835.00
C 558.97 835.12 561.05 837.87 564.00 838.00
C 563.51 834.58 566.33 832.54 568.00 830.00 Z"/>
</g>
<g fill="#DECA3F" fill-opacity="1.00" stroke="None"><path d="
M 594.00 843.00 
C 601.09 835.34 591.85 831.92 584.25 834.25 C 576.41 840.53 588.54 843.99 594.00 843.00 Z"/>
</g>
<g fill="#DECA3F" fill-opacity="1.00" stroke="None"><path d="
M 662.00 840.00 
C 649.28 837.41 630.39 835.81 620.30 846.30 C 612.92 855.18 611.47 866.99 610.00 879.00 C 609.00 893.06 609.86 908.39 620.75 919.25 C 645.69 941.87 682.19 909.89 675.99 881.01 C 674.69 866.13 666.57 853.51 662.00 840.00 Z"/>
</g>
<g fill="#DECA3F" fill-opacity="1.00" stroke="None"><path d="
M 368.00 891.00 
C 373.67 884.82 362.66 878.20 360.08 872.92 C 356.25 869.03 351.37 856.67 357.97 853.03 C 361.37 856.99 368.30 867.91 374.00 860.00 C 375.09 852.03 374.33 840.41 364.69 840.65 C 356.38 838.82 347.79 842.82 339.00 842.00
C 339.08 846.64 333.55 849.70 334.00 855.00
C 340.01 854.58 337.67 847.50 343.00 846.00
C 342.85 849.29 339.53 851.55 340.00 855.00
C 329.99 855.04 333.06 867.50 336.08 872.92 C 340.13 879.90 348.28 885.44 350.02 892.98 C 351.38 900.61 362.04 906.55 357.00 913.00
C 353.09 909.77 355.16 916.49 352.00 916.00
C 342.93 908.42 340.47 893.31 327.00 898.00
C 328.13 899.90 327.84 903.47 325.00 901.00
C 327.37 908.87 323.05 925.23 337.32 925.68 C 357.09 935.53 384.44 910.55 368.00 891.00 Z"/>
</g>
<g fill="#DECA3F" fill-opacity="1.00" stroke="None"><path d="
M 396.00 855.00 
C 396.68 876.87 394.56 899.34 397.22 920.78 C 397.79 933.09 409.49 930.50 411.30 920.30 C 417.19 913.34 412.37 900.11 414.33 891.67 C 413.87 881.10 414.65 871.65 414.00 861.00 C 409.78 846.88 425.70 848.99 434.91 848.92 C 442.03 837.36 423.27 840.52 416.01 841.01 C 406.17 842.64 395.75 842.03 386.01 844.01 C 375.21 847.75 387.42 863.03 396.00 855.00 Z"/>
</g>
<g fill="#DECA3F" fill-opacity="1.00" stroke="None"><path d="
M 496.00 841.00 
C 491.66 840.39 489.23 845.08 486.00 846.00
C 490.56 867.40 498.76 902.42 470.00 908.00
C 474.13 903.48 463.33 897.29 465.21 890.23 C 465.23 876.80 469.11 858.46 459.30 847.70 C 454.76 839.44 448.34 848.16 444.00 847.00
C 445.17 864.63 444.72 877.78 445.35 895.31 C 446.25 900.19 448.46 914.92 454.00 912.00
C 454.71 916.71 459.40 919.31 464.00 919.00
C 460.71 927.17 480.87 926.55 485.25 920.25 C 511.67 901.96 500.90 866.50 496.00 841.00 Z"/>
</g>
<g fill="#DECA3F" fill-opacity="1.00" stroke="None"><path d="
M 544.00 929.00 
C 537.48 923.28 553.97 923.52 555.08 915.08 C 562.77 901.20 569.76 885.13 568.93 869.07 C 565.60 844.16 525.14 835.15 510.00 853.00
C 514.03 858.07 511.11 871.77 518.00 873.00
C 514.16 886.70 519.62 899.86 513.75 912.75 C 506.77 918.15 515.96 925.19 518.00 929.00
C 526.93 929.68 535.68 925.67 544.00 929.00 Z"/>
</g>
<g fill="#DECA3F" fill-opacity="1.00" stroke="None"><path d="
M 597.00 853.00 
C 591.36 850.19 584.65 850.65 579.00 853.00
C 579.18 874.17 580.15 891.27 578.33 911.33 C 576.69 923.67 587.88 930.14 598.00 924.00
C 603.86 913.95 596.69 903.24 600.00 892.00 C 600.82 878.53 596.63 866.34 597.00 853.00 Z"/>
</g>
<g fill="#000000" fill-opacity="1.00" stroke="None"><path d="
M 640.00 855.00 
C 632.52 863.45 632.39 874.38 632.00 885.00 C 630.66 894.21 633.49 912.55 645.75 907.75 C 655.59 900.09 654.11 889.63 653.93 878.08 C 652.96 869.05 649.88 857.76 640.00 855.00 Z"/>
</g>
<g fill="#000000" fill-opacity="1.00" stroke="None"><path d="
M 536.00 912.00 
C 546.78 896.47 556.92 868.36 535.00 856.00
C 536.58 865.08 536.16 875.38 536.00 885.00 C 536.26 894.01 533.26 904.57 536.00 912.00 Z"/>
</g>
<g fill="#DECA3F" fill-opacity="1.00" stroke="None"><path d="
M 336.00 894.00 
C 330.88 893.90 335.82 898.35 336.00 894.00 Z"/>
</g>
<g fill="#000000" fill-opacity="1.00" stroke="None"><path d="
M 329.00 908.00 
C 325.84 913.47 331.15 915.16 329.00 908.00 Z"/>
</g>
<g fill="#000000" fill-opacity="1.00" stroke="None"><path d="
M 345.00 912.00 
C 341.26 909.11 342.18 915.21 345.00 912.00 Z"/>
</g>
<g fill="#000000" fill-opacity="1.00" stroke="None"><path d="
M 333.00 923.00 
C 332.26 917.50 327.79 920.59 333.00 923.00 Z"/>
</g>
</svg>